<?xml version="1.0" encoding="utf-8"?>
<!-- Generator: Adobe Illustrator 27.1.0, SVG Export Plug-In . SVG Version: 6.00 Build 0)  -->
<svg version="1.1" id="Calque_1" xmlns="http://www.w3.org/2000/svg" xmlns:xlink="http://www.w3.org/1999/xlink" x="0px" y="0px"
	 viewBox="0 0 291.6 224.3" style="enable-background:new 0 0 291.6 224.3; fill:#22c55e;" xml:space="preserve">
<path d="M262.7,0c-7.3,0.2-14.2,3.3-19.2,8.6C189.9,62.3,148.9,107.2,99.1,158l-53-44.8c-5.7-4.8-13-7.1-20.5-6.5
	c-7.4,0.6-14.3,4.2-19.1,9.9c-4.8,5.7-7.1,13.1-6.5,20.5c0.6,7.4,4.2,14.3,9.9,19l72.8,61.6c5.4,4.5,12.2,6.9,19.2,6.6
	c7-0.3,13.6-3.2,18.6-8.1C181,155.7,223.9,107.4,283,48.1c5.4-5.3,8.5-12.5,8.5-20.1c0-7.6-3.1-14.8-8.5-20.1
	C277.7,2.6,270.3-0.2,262.7,0L262.7,0z"/>
</svg>
