<svg width="560" height="429" viewBox="0 0 560 429" fill="none" xmlns="http://www.w3.org/2000/svg">
<g clip-path="url(#clip0_2_30)">
<path d="M79.9922 252.73C99.5901 252.73 115.477 236.814 115.477 217.181C115.477 197.548 99.5901 181.632 79.9922 181.632C60.3943 181.632 44.507 197.548 44.507 217.181C44.507 236.814 60.3943 252.73 79.9922 252.73Z" fill="#22C55E"/>
<path d="M152.662 417.976H152.626C151.376 417.974 150.178 417.476 149.295 416.591C148.411 415.706 147.914 414.506 147.913 413.254V136.085C147.914 134.833 148.411 133.633 149.295 132.748C150.178 131.863 151.376 131.365 152.626 131.364H385.497C386.747 131.365 387.945 131.863 388.828 132.748C389.712 133.633 390.209 134.833 390.21 136.085V351.6C390.209 352.845 389.717 354.039 388.841 354.923C387.965 355.807 386.777 356.31 385.534 356.321L152.662 417.976Z" fill="#EFE9DA"/>
<path d="M324.784 92.2047H216.665V29.4389C216.667 28.1135 217.193 26.8429 218.129 25.9057C219.064 24.9685 220.333 24.4413 221.656 24.4398H319.794C321.117 24.4413 322.386 24.9685 323.321 25.9057C324.257 26.8429 324.783 28.1135 324.784 29.4389V92.2047ZM217.774 91.0938H323.675V29.4389C323.674 28.408 323.265 27.4197 322.537 26.6908C321.81 25.9619 320.823 25.5519 319.794 25.5507H221.656C220.627 25.5519 219.64 25.9619 218.912 26.6908C218.185 27.4197 217.776 28.408 217.774 29.4389V91.0938Z" fill="#3F3D56"/>
<path d="M247.438 48.3241H294.012C295.188 48.3241 296.317 48.7923 297.148 49.6256C297.98 50.4589 298.448 51.5892 298.448 52.7677V119.422H243.002V52.7677C243.002 51.5892 243.469 50.4589 244.301 49.6256C245.133 48.7923 246.261 48.3241 247.438 48.3241Z" fill="#EFE9DA"/>
<path d="M256.586 25.5507H233.854V2.77725C233.854 2.04093 234.147 1.33502 234.666 0.814367C235.186 0.293715 235.891 0.000842368 236.626 0H253.814C254.549 0.000842368 255.254 0.293715 255.773 0.814367C256.293 1.33502 256.585 2.04093 256.586 2.77725V25.5507ZM234.962 24.4398H255.477V2.77725C255.477 2.33545 255.301 1.91189 254.99 1.59949C254.678 1.2871 254.255 1.11138 253.814 1.1109H236.626C236.185 1.11138 235.762 1.2871 235.45 1.59949C235.138 1.91189 234.963 2.33545 234.962 2.77725V24.4398Z" fill="#3F3D56"/>
<path d="M443.388 360.398C443.167 360.398 442.952 360.398 442.731 360.392C429.014 360.24 415.825 355.076 405.641 345.869C405.264 345.525 404.891 345.178 404.52 344.825L404.349 344.661V238.208L404.402 238.095C404.769 237.316 405.141 236.547 405.513 235.779C417.046 212.323 430.496 199.406 443.388 199.406C461.979 199.406 476.397 224.954 483.336 240.182C492.986 261.358 499.726 287.597 499.726 303.992C499.722 318.844 493.872 333.096 483.445 343.655C473.018 354.213 458.856 360.228 444.032 360.392C443.824 360.398 443.603 360.398 443.388 360.398ZM405.458 344.185C405.765 344.476 406.075 344.762 406.385 345.046C416.37 354.072 429.302 359.134 442.751 359.281C442.975 359.287 443.188 359.281 443.403 359.287C443.604 359.287 443.81 359.287 444.011 359.282C474.125 358.947 498.617 334.144 498.617 303.992C498.617 287.74 491.919 261.69 482.327 240.643C475.498 225.657 461.358 200.517 443.388 200.517C430.941 200.517 417.844 213.213 406.509 236.267C406.158 236.992 405.806 237.72 405.458 238.457L405.458 344.185Z" fill="#3F3D56"/>
<path d="M443.385 427.745C443.216 427.745 443.054 427.678 442.934 427.558C442.815 427.438 442.747 427.275 442.747 427.106V296.648C442.747 296.564 442.763 296.481 442.795 296.403C442.827 296.325 442.874 296.254 442.933 296.194C442.992 296.134 443.063 296.087 443.14 296.055C443.218 296.022 443.301 296.006 443.385 296.006C443.469 296.006 443.553 296.022 443.63 296.055C443.708 296.087 443.778 296.134 443.838 296.194C443.897 296.254 443.944 296.325 443.976 296.403C444.008 296.481 444.024 296.564 444.023 296.648V427.106C444.023 427.275 443.956 427.438 443.836 427.558C443.717 427.678 443.554 427.745 443.385 427.745Z" fill="#CCCCCC"/>
<path d="M112.375 427.745C112.206 427.745 112.044 427.678 111.924 427.558C111.805 427.438 111.737 427.275 111.737 427.106V296.648C111.737 296.564 111.753 296.481 111.785 296.403C111.817 296.325 111.864 296.254 111.923 296.194C111.982 296.134 112.053 296.087 112.13 296.055C112.208 296.022 112.291 296.006 112.375 296.006C112.459 296.006 112.543 296.022 112.62 296.055C112.698 296.087 112.768 296.134 112.828 296.194C112.887 296.254 112.934 296.325 112.966 296.403C112.998 296.481 113.014 296.564 113.013 296.648V427.106C113.013 427.275 112.946 427.438 112.826 427.558C112.707 427.678 112.545 427.745 112.375 427.745Z" fill="#CCCCCC"/>
<path d="M443.386 321.022C443.294 321.023 443.204 321.003 443.12 320.965C443.037 320.927 442.963 320.871 442.903 320.802L410.82 283.737C410.71 283.609 410.655 283.442 410.667 283.273C410.679 283.104 410.758 282.947 410.885 282.836C411.013 282.725 411.179 282.67 411.348 282.681C411.516 282.693 411.674 282.772 411.784 282.899L443.867 319.965C443.947 320.057 443.999 320.171 444.017 320.292C444.034 320.413 444.016 320.537 443.966 320.649C443.915 320.76 443.833 320.854 443.73 320.921C443.628 320.987 443.508 321.022 443.386 321.022V321.022Z" fill="#CCCCCC"/>
<path d="M443.385 342.413C443.259 342.413 443.136 342.376 443.031 342.306C442.926 342.235 442.844 342.136 442.796 342.019C442.748 341.902 442.735 341.774 442.76 341.65C442.784 341.526 442.845 341.412 442.934 341.323L461.164 323.059C461.284 322.94 461.446 322.873 461.615 322.874C461.784 322.874 461.946 322.941 462.065 323.061C462.184 323.18 462.252 323.342 462.252 323.512C462.252 323.681 462.185 323.843 462.066 323.963L443.836 342.226C443.777 342.286 443.707 342.333 443.629 342.365C443.552 342.397 443.469 342.414 443.385 342.413Z" fill="#CCCCCC"/>
<path d="M502.405 428.009H454.719V427.454C454.718 424.316 455.333 421.209 456.531 418.309C457.729 415.41 459.485 412.776 461.699 410.556C463.913 408.337 466.542 406.577 469.435 405.376C472.329 404.175 475.43 403.556 478.562 403.556C481.694 403.556 484.796 404.175 487.689 405.376C490.583 406.577 493.212 408.337 495.426 410.556C497.64 412.776 499.396 415.41 500.594 418.309C501.791 421.209 502.407 424.316 502.405 427.454L502.405 428.009ZM455.835 426.898H501.29C501.145 420.956 498.687 415.306 494.441 411.154C490.194 407.003 484.496 404.679 478.562 404.679C472.629 404.679 466.931 407.003 462.684 411.154C458.438 415.306 455.98 420.956 455.835 426.898H455.835Z" fill="#3F3D56"/>
<path d="M478.562 413.897C478.395 413.897 478.235 413.963 478.117 414.082C477.999 414.2 477.933 414.36 477.933 414.527V421.226L471.419 415.625C471.357 415.571 471.284 415.53 471.205 415.504C471.127 415.478 471.044 415.468 470.961 415.474C470.879 415.48 470.798 415.503 470.724 415.54C470.65 415.577 470.585 415.629 470.531 415.692C470.477 415.755 470.436 415.828 470.41 415.907C470.384 415.986 470.374 416.069 470.381 416.151C470.387 416.234 470.41 416.315 470.447 416.389C470.485 416.463 470.536 416.528 470.599 416.582L477.933 422.888V426.823C477.933 426.906 477.949 426.988 477.98 427.065C478.012 427.142 478.058 427.211 478.117 427.27C478.175 427.329 478.245 427.376 478.321 427.407C478.398 427.439 478.48 427.456 478.562 427.456C478.645 427.456 478.727 427.439 478.804 427.407C478.88 427.376 478.95 427.329 479.008 427.27C479.067 427.211 479.113 427.142 479.144 427.065C479.176 426.988 479.192 426.906 479.192 426.823V414.527C479.192 414.36 479.125 414.2 479.007 414.082C478.889 413.963 478.729 413.897 478.562 413.897Z" fill="#3F3D56"/>
<path d="M102.643 428.009H54.957V427.454C54.9555 424.316 55.5711 421.209 56.7686 418.309C57.9662 415.41 59.7222 412.776 61.9364 410.556C64.1505 408.337 66.7795 406.577 69.673 405.376C72.5665 404.175 75.6679 403.556 78.8 403.556C81.9321 403.556 85.0334 404.175 87.927 405.376C90.8205 406.577 93.4494 408.337 95.6636 410.556C97.8778 412.776 99.6338 415.41 100.831 418.309C102.029 421.209 102.645 424.316 102.643 427.454L102.643 428.009ZM56.0725 426.898H101.527C101.383 420.956 98.9247 415.306 94.6783 411.154C90.4318 407.003 84.7335 404.679 78.8 404.679C72.8665 404.679 67.1681 407.003 62.9217 411.154C58.6752 415.306 56.2172 420.956 56.0725 426.898H56.0725Z" fill="#3F3D56"/>
<path d="M78.7999 413.897C78.633 413.897 78.4729 413.963 78.3548 414.082C78.2368 414.2 78.1705 414.36 78.1704 414.527V421.226L71.657 415.625C71.5943 415.571 71.5215 415.53 71.4429 415.504C71.3643 415.478 71.2813 415.468 71.1987 415.474C71.1162 415.48 71.0357 415.503 70.9618 415.54C70.8879 415.577 70.8221 415.629 70.7682 415.692C70.7142 415.755 70.6732 415.828 70.6475 415.907C70.6218 415.986 70.6118 416.069 70.6182 416.151C70.6246 416.234 70.6472 416.315 70.6847 416.389C70.7222 416.463 70.774 416.528 70.8369 416.582L78.1704 422.888V426.823C78.1702 426.906 78.1863 426.988 78.2178 427.065C78.2493 427.142 78.2957 427.211 78.3541 427.27C78.4126 427.329 78.4821 427.376 78.5586 427.407C78.6351 427.439 78.7171 427.456 78.7999 427.456C78.8827 427.456 78.9647 427.439 79.0412 427.407C79.1177 427.376 79.1872 427.329 79.2456 427.27C79.3041 427.211 79.3504 427.142 79.382 427.065C79.4135 426.988 79.4296 426.906 79.4293 426.823V414.527C79.4293 414.36 79.363 414.2 79.245 414.082C79.1269 413.963 78.9668 413.897 78.7999 413.897Z" fill="#3F3D56"/>
<path d="M112.932 360.398C112.712 360.398 112.496 360.398 112.275 360.392C97.4522 360.224 83.2926 354.209 72.8679 343.651C62.4431 333.093 56.5938 318.843 56.5887 303.992C56.5887 287.597 63.3287 261.357 72.9792 240.182C79.9194 224.954 94.3386 199.406 112.932 199.406C120.591 199.406 128.303 203.779 135.855 212.404C136.229 212.83 136.604 213.268 136.974 213.717L137.101 213.871V354.947L136.788 355.099C136.415 355.28 136.037 355.45 135.658 355.614C128.7 358.699 121.185 360.325 113.576 360.392C113.369 360.398 113.148 360.398 112.932 360.398ZM112.932 200.517C94.9587 200.517 80.8176 225.657 73.9879 240.643C64.3964 261.689 57.6976 287.739 57.6976 303.992C57.6976 334.139 82.1901 358.942 112.295 359.281C112.52 359.287 112.729 359.289 112.947 359.287C113.148 359.287 113.355 359.287 113.556 359.282C121.019 359.216 128.389 357.622 135.214 354.596C135.475 354.483 135.735 354.368 135.992 354.248V214.271C135.671 213.884 135.346 213.507 135.022 213.138C127.689 204.763 120.258 200.517 112.932 200.517Z" fill="#3F3D56"/>
<path d="M112.93 321.022C112.839 321.023 112.748 321.003 112.665 320.965C112.582 320.927 112.508 320.871 112.448 320.802L80.365 283.737C80.2545 283.609 80.1993 283.442 80.2115 283.273C80.2237 283.104 80.3022 282.947 80.4299 282.836C80.5575 282.725 80.7239 282.67 80.8925 282.681C81.061 282.693 81.218 282.772 81.329 282.899L113.412 319.965C113.492 320.057 113.544 320.171 113.561 320.292C113.579 320.413 113.561 320.537 113.51 320.649C113.459 320.76 113.378 320.854 113.275 320.921C113.172 320.987 113.052 321.022 112.93 321.022V321.022Z" fill="#CCCCCC"/>
<path d="M112.93 342.413C112.804 342.413 112.68 342.376 112.575 342.306C112.471 342.235 112.389 342.136 112.341 342.019C112.292 341.902 112.28 341.774 112.304 341.65C112.329 341.526 112.39 341.412 112.479 341.323L130.709 323.059C130.829 322.94 130.991 322.873 131.16 322.874C131.328 322.874 131.49 322.941 131.61 323.061C131.729 323.18 131.796 323.342 131.796 323.512C131.797 323.681 131.73 323.843 131.611 323.963L113.381 342.226C113.322 342.286 113.251 342.333 113.174 342.365C113.097 342.397 113.014 342.414 112.93 342.413Z" fill="#CCCCCC"/>
<path d="M163.027 96.6483L163.438 97.4592C163.62 97.8091 163.715 98.1978 163.715 98.5923V120.533H183.121V98.5923C183.121 98.1978 183.216 97.8091 183.398 97.4592L183.809 96.6483H163.027ZM182.012 98.5923V119.422H164.824V98.5923C164.824 98.3116 164.791 98.0318 164.724 97.7592H182.112C182.045 98.0318 182.012 98.3116 182.012 98.5923ZM187.423 96.6483L187.834 97.4592C188.016 97.8091 188.111 98.1978 188.111 98.5923V120.533H207.517V98.5923C207.517 98.1978 207.612 97.8091 207.794 97.4592L208.205 96.6483H187.423ZM206.408 98.5923V119.422H189.22V98.5923C189.22 98.3116 189.187 98.0318 189.12 97.7592H206.508C206.441 98.0318 206.408 98.3116 206.408 98.5923ZM211.819 96.6483L212.23 97.4592C212.412 97.8091 212.507 98.1978 212.507 98.5923V120.533H231.913V98.5923C231.913 98.1978 232.008 97.8091 232.19 97.4592L232.601 96.6483H211.819ZM230.804 98.5923V119.422H213.616V98.5923C213.616 98.3116 213.583 98.0318 213.516 97.7592H230.904C230.837 98.0318 230.804 98.3116 230.804 98.5923ZM236.215 96.6483L236.626 97.4592C236.808 97.8091 236.903 98.1978 236.903 98.5923V120.533H256.309V98.5923C256.309 98.1978 256.404 97.8091 256.586 97.4592L256.997 96.6483H236.215ZM255.2 98.5923V119.422H238.012V98.5923C238.012 98.3116 237.979 98.0318 237.912 97.7592H255.3C255.233 98.0318 255.2 98.3116 255.2 98.5923ZM260.611 96.6483L261.022 97.4592C261.204 97.8091 261.299 98.1978 261.299 98.5923V120.533H280.705V98.5923C280.705 98.1978 280.8 97.8091 280.982 97.4592L281.393 96.6483H260.611ZM279.596 98.5923V119.422H262.408V98.5923C262.408 98.3116 262.375 98.0318 262.308 97.7592H279.696C279.629 98.0318 279.596 98.3116 279.596 98.5923ZM285.008 96.6483L285.418 97.4592C285.6 97.8091 285.695 98.1978 285.695 98.5923V120.533H305.101V98.5923C305.101 98.1978 305.196 97.8091 305.378 97.4592L305.789 96.6483H285.008ZM303.992 98.5923V119.422H286.804V98.5923C286.804 98.3116 286.771 98.0318 286.704 97.7592H304.092C304.025 98.0318 303.992 98.3116 303.992 98.5923ZM309.404 96.6483L309.814 97.4592C309.996 97.8091 310.091 98.1978 310.091 98.5923V120.533H329.497V98.5923C329.497 98.1978 329.593 97.8091 329.774 97.4592L330.185 96.6483H309.404ZM328.388 98.5923V119.422H311.2V98.5923C311.2 98.3116 311.167 98.0318 311.1 97.7592H328.488C328.421 98.0318 328.388 98.3116 328.388 98.5923ZM333.8 96.6483L334.21 97.4592C334.392 97.8091 334.487 98.1978 334.487 98.5923V120.533H353.893V98.5923C353.893 98.1978 353.989 97.8091 354.17 97.4592L354.581 96.6483H333.8ZM352.784 98.5923V119.422H335.596V98.5923C335.596 98.3116 335.563 98.0318 335.496 97.7592H352.884C352.818 98.0318 352.784 98.3116 352.784 98.5923ZM358.196 96.6483L358.606 97.4592C358.788 97.8091 358.883 98.1978 358.883 98.5923V120.533H378.289V98.5923C378.29 98.1978 378.385 97.8091 378.566 97.4592L378.977 96.6483H358.196ZM377.18 98.5923V119.422H359.992V98.5923C359.993 98.3116 359.959 98.0318 359.892 97.7592H377.28C377.214 98.0318 377.18 98.3116 377.18 98.5923ZM358.196 96.6483L358.606 97.4592C358.788 97.8091 358.883 98.1978 358.883 98.5923V120.533H378.289V98.5923C378.29 98.1978 378.385 97.8091 378.566 97.4592L378.977 96.6483H358.196ZM377.18 98.5923V119.422H359.992V98.5923C359.993 98.3116 359.959 98.0318 359.892 97.7592H377.28C377.214 98.0318 377.18 98.3116 377.18 98.5923ZM333.8 96.6483L334.21 97.4592C334.392 97.8091 334.487 98.1978 334.487 98.5923V120.533H353.893V98.5923C353.893 98.1978 353.989 97.8091 354.17 97.4592L354.581 96.6483H333.8ZM352.784 98.5923V119.422H335.596V98.5923C335.596 98.3116 335.563 98.0318 335.496 97.7592H352.884C352.818 98.0318 352.784 98.3116 352.784 98.5923ZM309.404 96.6483L309.814 97.4592C309.996 97.8091 310.091 98.1978 310.091 98.5923V120.533H329.497V98.5923C329.497 98.1978 329.593 97.8091 329.774 97.4592L330.185 96.6483H309.404ZM328.388 98.5923V119.422H311.2V98.5923C311.2 98.3116 311.167 98.0318 311.1 97.7592H328.488C328.421 98.0318 328.388 98.3116 328.388 98.5923ZM285.008 96.6483L285.418 97.4592C285.6 97.8091 285.695 98.1978 285.695 98.5923V120.533H305.101V98.5923C305.101 98.1978 305.196 97.8091 305.378 97.4592L305.789 96.6483H285.008ZM303.992 98.5923V119.422H286.804V98.5923C286.804 98.3116 286.771 98.0318 286.704 97.7592H304.092C304.025 98.0318 303.992 98.3116 303.992 98.5923ZM260.611 96.6483L261.022 97.4592C261.204 97.8091 261.299 98.1978 261.299 98.5923V120.533H280.705V98.5923C280.705 98.1978 280.8 97.8091 280.982 97.4592L281.393 96.6483H260.611ZM279.596 98.5923V119.422H262.408V98.5923C262.408 98.3116 262.375 98.0318 262.308 97.7592H279.696C279.629 98.0318 279.596 98.3116 279.596 98.5923ZM236.215 96.6483L236.626 97.4592C236.808 97.8091 236.903 98.1978 236.903 98.5923V120.533H256.309V98.5923C256.309 98.1978 256.404 97.8091 256.586 97.4592L256.997 96.6483H236.215ZM255.2 98.5923V119.422H238.012V98.5923C238.012 98.3116 237.979 98.0318 237.912 97.7592H255.3C255.233 98.0318 255.2 98.3116 255.2 98.5923ZM211.819 96.6483L212.23 97.4592C212.412 97.8091 212.507 98.1978 212.507 98.5923V120.533H231.913V98.5923C231.913 98.1978 232.008 97.8091 232.19 97.4592L232.601 96.6483H211.819ZM230.804 98.5923V119.422H213.616V98.5923C213.616 98.3116 213.583 98.0318 213.516 97.7592H230.904C230.837 98.0318 230.804 98.3116 230.804 98.5923ZM187.423 96.6483L187.834 97.4592C188.016 97.8091 188.111 98.1978 188.111 98.5923V120.533H207.517V98.5923C207.517 98.1978 207.612 97.8091 207.794 97.4592L208.205 96.6483H187.423ZM206.408 98.5923V119.422H189.22V98.5923C189.22 98.3116 189.187 98.0318 189.12 97.7592H206.508C206.441 98.0318 206.408 98.3116 206.408 98.5923ZM163.027 96.6483L163.438 97.4592C163.62 97.8091 163.715 98.1978 163.715 98.5923V120.533H183.121V98.5923C183.121 98.1978 183.216 97.8091 183.398 97.4592L183.809 96.6483H163.027ZM182.012 98.5923V119.422H164.824V98.5923C164.824 98.3116 164.791 98.0318 164.724 97.7592H182.112C182.045 98.0318 182.012 98.3116 182.012 98.5923ZM358.196 96.6483L358.606 97.4592C358.788 97.8091 358.883 98.1978 358.883 98.5923V120.533H378.289V98.5923C378.29 98.1978 378.385 97.8091 378.566 97.4592L378.977 96.6483H358.196ZM377.18 98.5923V119.422H359.992V98.5923C359.993 98.3116 359.959 98.0318 359.892 97.7592H377.28C377.214 98.0318 377.18 98.3116 377.18 98.5923ZM333.8 96.6483L334.21 97.4592C334.392 97.8091 334.487 98.1978 334.487 98.5923V120.533H353.893V98.5923C353.893 98.1978 353.989 97.8091 354.17 97.4592L354.581 96.6483H333.8ZM352.784 98.5923V119.422H335.596V98.5923C335.596 98.3116 335.563 98.0318 335.496 97.7592H352.884C352.818 98.0318 352.784 98.3116 352.784 98.5923ZM309.404 96.6483L309.814 97.4592C309.996 97.8091 310.091 98.1978 310.091 98.5923V120.533H329.497V98.5923C329.497 98.1978 329.593 97.8091 329.774 97.4592L330.185 96.6483H309.404ZM328.388 98.5923V119.422H311.2V98.5923C311.2 98.3116 311.167 98.0318 311.1 97.7592H328.488C328.421 98.0318 328.388 98.3116 328.388 98.5923ZM285.008 96.6483L285.418 97.4592C285.6 97.8091 285.695 98.1978 285.695 98.5923V120.533H305.101V98.5923C305.101 98.1978 305.196 97.8091 305.378 97.4592L305.789 96.6483H285.008ZM303.992 98.5923V119.422H286.804V98.5923C286.804 98.3116 286.771 98.0318 286.704 97.7592H304.092C304.025 98.0318 303.992 98.3116 303.992 98.5923ZM260.611 96.6483L261.022 97.4592C261.204 97.8091 261.299 98.1978 261.299 98.5923V120.533H280.705V98.5923C280.705 98.1978 280.8 97.8091 280.982 97.4592L281.393 96.6483H260.611ZM279.596 98.5923V119.422H262.408V98.5923C262.408 98.3116 262.375 98.0318 262.308 97.7592H279.696C279.629 98.0318 279.596 98.3116 279.596 98.5923ZM236.215 96.6483L236.626 97.4592C236.808 97.8091 236.903 98.1978 236.903 98.5923V120.533H256.309V98.5923C256.309 98.1978 256.404 97.8091 256.586 97.4592L256.997 96.6483H236.215ZM255.2 98.5923V119.422H238.012V98.5923C238.012 98.3116 237.979 98.0318 237.912 97.7592H255.3C255.233 98.0318 255.2 98.3116 255.2 98.5923ZM211.819 96.6483L212.23 97.4592C212.412 97.8091 212.507 98.1978 212.507 98.5923V120.533H231.913V98.5923C231.913 98.1978 232.008 97.8091 232.19 97.4592L232.601 96.6483H211.819ZM230.804 98.5923V119.422H213.616V98.5923C213.616 98.3116 213.583 98.0318 213.516 97.7592H230.904C230.837 98.0318 230.804 98.3116 230.804 98.5923ZM187.423 96.6483L187.834 97.4592C188.016 97.8091 188.111 98.1978 188.111 98.5923V120.533H207.517V98.5923C207.517 98.1978 207.612 97.8091 207.794 97.4592L208.205 96.6483H187.423ZM206.408 98.5923V119.422H189.22V98.5923C189.22 98.3116 189.187 98.0318 189.12 97.7592H206.508C206.441 98.0318 206.408 98.3116 206.408 98.5923ZM163.027 96.6483L163.438 97.4592C163.62 97.8091 163.715 98.1978 163.715 98.5923V120.533H183.121V98.5923C183.121 98.1978 183.216 97.8091 183.398 97.4592L183.809 96.6483H163.027ZM182.012 98.5923V119.422H164.824V98.5923C164.824 98.3116 164.791 98.0318 164.724 97.7592H182.112C182.045 98.0318 182.012 98.3116 182.012 98.5923ZM358.196 96.6483L358.606 97.4592C358.788 97.8091 358.883 98.1978 358.883 98.5923V120.533H378.289V98.5923C378.29 98.1978 378.385 97.8091 378.566 97.4592L378.977 96.6483H358.196ZM377.18 98.5923V119.422H359.992V98.5923C359.993 98.3116 359.959 98.0318 359.892 97.7592H377.28C377.214 98.0318 377.18 98.3116 377.18 98.5923ZM333.8 96.6483L334.21 97.4592C334.392 97.8091 334.487 98.1978 334.487 98.5923V120.533H353.893V98.5923C353.893 98.1978 353.989 97.8091 354.17 97.4592L354.581 96.6483H333.8ZM352.784 98.5923V119.422H335.596V98.5923C335.596 98.3116 335.563 98.0318 335.496 97.7592H352.884C352.818 98.0318 352.784 98.3116 352.784 98.5923ZM309.404 96.6483L309.814 97.4592C309.996 97.8091 310.091 98.1978 310.091 98.5923V120.533H329.497V98.5923C329.497 98.1978 329.593 97.8091 329.774 97.4592L330.185 96.6483H309.404ZM328.388 98.5923V119.422H311.2V98.5923C311.2 98.3116 311.167 98.0318 311.1 97.7592H328.488C328.421 98.0318 328.388 98.3116 328.388 98.5923ZM285.008 96.6483L285.418 97.4592C285.6 97.8091 285.695 98.1978 285.695 98.5923V120.533H305.101V98.5923C305.101 98.1978 305.196 97.8091 305.378 97.4592L305.789 96.6483H285.008ZM303.992 98.5923V119.422H286.804V98.5923C286.804 98.3116 286.771 98.0318 286.704 97.7592H304.092C304.025 98.0318 303.992 98.3116 303.992 98.5923ZM260.611 96.6483L261.022 97.4592C261.204 97.8091 261.299 98.1978 261.299 98.5923V120.533H280.705V98.5923C280.705 98.1978 280.8 97.8091 280.982 97.4592L281.393 96.6483H260.611ZM279.596 98.5923V119.422H262.408V98.5923C262.408 98.3116 262.375 98.0318 262.308 97.7592H279.696C279.629 98.0318 279.596 98.3116 279.596 98.5923ZM236.215 96.6483L236.626 97.4592C236.808 97.8091 236.903 98.1978 236.903 98.5923V120.533H256.309V98.5923C256.309 98.1978 256.404 97.8091 256.586 97.4592L256.997 96.6483H236.215ZM255.2 98.5923V119.422H238.012V98.5923C238.012 98.3116 237.979 98.0318 237.912 97.7592H255.3C255.233 98.0318 255.2 98.3116 255.2 98.5923ZM211.819 96.6483L212.23 97.4592C212.412 97.8091 212.507 98.1978 212.507 98.5923V120.533H231.913V98.5923C231.913 98.1978 232.008 97.8091 232.19 97.4592L232.601 96.6483H211.819ZM230.804 98.5923V119.422H213.616V98.5923C213.616 98.3116 213.583 98.0318 213.516 97.7592H230.904C230.837 98.0318 230.804 98.3116 230.804 98.5923ZM187.423 96.6483L187.834 97.4592C188.016 97.8091 188.111 98.1978 188.111 98.5923V120.533H207.517V98.5923C207.517 98.1978 207.612 97.8091 207.794 97.4592L208.205 96.6483H187.423ZM206.408 98.5923V119.422H189.22V98.5923C189.22 98.3116 189.187 98.0318 189.12 97.7592H206.508C206.441 98.0318 206.408 98.3116 206.408 98.5923ZM163.027 96.6483L163.438 97.4592C163.62 97.8091 163.715 98.1978 163.715 98.5923V120.533H183.121V98.5923C183.121 98.1978 183.216 97.8091 183.398 97.4592L183.809 96.6483H163.027ZM182.012 98.5923V119.422H164.824V98.5923C164.824 98.3116 164.791 98.0318 164.724 97.7592H182.112C182.045 98.0318 182.012 98.3116 182.012 98.5923ZM358.196 96.6483L358.606 97.4592C358.788 97.8091 358.883 98.1978 358.883 98.5923V120.533H378.289V98.5923C378.29 98.1978 378.385 97.8091 378.566 97.4592L378.977 96.6483H358.196ZM377.18 98.5923V119.422H359.992V98.5923C359.993 98.3116 359.959 98.0318 359.892 97.7592H377.28C377.214 98.0318 377.18 98.3116 377.18 98.5923ZM333.8 96.6483L334.21 97.4592C334.392 97.8091 334.487 98.1978 334.487 98.5923V120.533H353.893V98.5923C353.893 98.1978 353.989 97.8091 354.17 97.4592L354.581 96.6483H333.8ZM352.784 98.5923V119.422H335.596V98.5923C335.596 98.3116 335.563 98.0318 335.496 97.7592H352.884C352.818 98.0318 352.784 98.3116 352.784 98.5923ZM309.404 96.6483L309.814 97.4592C309.996 97.8091 310.091 98.1978 310.091 98.5923V120.533H329.497V98.5923C329.497 98.1978 329.593 97.8091 329.774 97.4592L330.185 96.6483H309.404ZM328.388 98.5923V119.422H311.2V98.5923C311.2 98.3116 311.167 98.0318 311.1 97.7592H328.488C328.421 98.0318 328.388 98.3116 328.388 98.5923ZM285.008 96.6483L285.418 97.4592C285.6 97.8091 285.695 98.1978 285.695 98.5923V120.533H305.101V98.5923C305.101 98.1978 305.196 97.8091 305.378 97.4592L305.789 96.6483H285.008ZM303.992 98.5923V119.422H286.804V98.5923C286.804 98.3116 286.771 98.0318 286.704 97.7592H304.092C304.025 98.0318 303.992 98.3116 303.992 98.5923ZM260.611 96.6483L261.022 97.4592C261.204 97.8091 261.299 98.1978 261.299 98.5923V120.533H280.705V98.5923C280.705 98.1978 280.8 97.8091 280.982 97.4592L281.393 96.6483H260.611ZM279.596 98.5923V119.422H262.408V98.5923C262.408 98.3116 262.375 98.0318 262.308 97.7592H279.696C279.629 98.0318 279.596 98.3116 279.596 98.5923ZM236.215 96.6483L236.626 97.4592C236.808 97.8091 236.903 98.1978 236.903 98.5923V120.533H256.309V98.5923C256.309 98.1978 256.404 97.8091 256.586 97.4592L256.997 96.6483H236.215ZM255.2 98.5923V119.422H238.012V98.5923C238.012 98.3116 237.979 98.0318 237.912 97.7592H255.3C255.233 98.0318 255.2 98.3116 255.2 98.5923ZM211.819 96.6483L212.23 97.4592C212.412 97.8091 212.507 98.1978 212.507 98.5923V120.533H231.913V98.5923C231.913 98.1978 232.008 97.8091 232.19 97.4592L232.601 96.6483H211.819ZM230.804 98.5923V119.422H213.616V98.5923C213.616 98.3116 213.583 98.0318 213.516 97.7592H230.904C230.837 98.0318 230.804 98.3116 230.804 98.5923ZM187.423 96.6483L187.834 97.4592C188.016 97.8091 188.111 98.1978 188.111 98.5923V120.533H207.517V98.5923C207.517 98.1978 207.612 97.8091 207.794 97.4592L208.205 96.6483H187.423ZM206.408 98.5923V119.422H189.22V98.5923C189.22 98.3116 189.187 98.0318 189.12 97.7592H206.508C206.441 98.0318 206.408 98.3116 206.408 98.5923ZM163.027 96.6483L163.438 97.4592C163.62 97.8091 163.715 98.1978 163.715 98.5923V120.533H183.121V98.5923C183.121 98.1978 183.216 97.8091 183.398 97.4592L183.809 96.6483H163.027ZM182.012 98.5923V119.422H164.824V98.5923C164.824 98.3116 164.791 98.0318 164.724 97.7592H182.112C182.045 98.0318 182.012 98.3116 182.012 98.5923ZM358.196 96.6483L358.606 97.4592C358.788 97.8091 358.883 98.1978 358.883 98.5923V120.533H378.289V98.5923C378.29 98.1978 378.385 97.8091 378.566 97.4592L378.977 96.6483H358.196ZM377.18 98.5923V119.422H359.992V98.5923C359.993 98.3116 359.959 98.0318 359.892 97.7592H377.28C377.214 98.0318 377.18 98.3116 377.18 98.5923ZM334.21 97.4592C334.392 97.8091 334.487 98.1978 334.487 98.5923V120.533H353.893V98.5923C353.893 98.1978 353.989 97.8091 354.17 97.4592L354.581 96.6483H333.8L334.21 97.4592ZM352.884 97.7592C352.818 98.0318 352.784 98.3116 352.784 98.5923V119.422H335.596V98.5923C335.596 98.3116 335.563 98.0318 335.496 97.7592H352.884ZM309.814 97.4592C309.996 97.8091 310.091 98.1978 310.091 98.5923V120.533H329.497V98.5923C329.497 98.1978 329.593 97.8091 329.774 97.4592L330.185 96.6483H309.404L309.814 97.4592ZM328.488 97.7592C328.421 98.0318 328.388 98.3116 328.388 98.5923V119.422H311.2V98.5923C311.2 98.3116 311.167 98.0318 311.1 97.7592H328.488ZM285.418 97.4592C285.6 97.8091 285.695 98.1978 285.695 98.5923V120.533H305.101V98.5923C305.101 98.1978 305.196 97.8091 305.378 97.4592L305.789 96.6483H285.008L285.418 97.4592ZM304.092 97.7592C304.025 98.0318 303.992 98.3116 303.992 98.5923V119.422H286.804V98.5923C286.804 98.3116 286.771 98.0318 286.704 97.7592H304.092ZM261.022 97.4592C261.204 97.8091 261.299 98.1978 261.299 98.5923V120.533H280.705V98.5923C280.705 98.1978 280.8 97.8091 280.982 97.4592L281.393 96.6483H260.611L261.022 97.4592ZM279.696 97.7592C279.629 98.0318 279.596 98.3116 279.596 98.5923V119.422H262.408V98.5923C262.408 98.3116 262.375 98.0318 262.308 97.7592H279.696ZM236.626 97.4592C236.808 97.8091 236.903 98.1978 236.903 98.5923V120.533H256.309V98.5923C256.309 98.1978 256.404 97.8091 256.586 97.4592L256.997 96.6483H236.215L236.626 97.4592ZM255.3 97.7592C255.233 98.0318 255.2 98.3116 255.2 98.5923V119.422H238.012V98.5923C238.012 98.3116 237.979 98.0318 237.912 97.7592H255.3ZM212.23 97.4592C212.412 97.8091 212.507 98.1978 212.507 98.5923V120.533H231.913V98.5923C231.913 98.1978 232.008 97.8091 232.19 97.4592L232.601 96.6483H211.819L212.23 97.4592ZM230.904 97.7592C230.837 98.0318 230.804 98.3116 230.804 98.5923V119.422H213.616V98.5923C213.616 98.3116 213.583 98.0318 213.516 97.7592H230.904ZM187.834 97.4592C188.016 97.8091 188.111 98.1978 188.111 98.5923V120.533H207.517V98.5923C207.517 98.1978 207.612 97.8091 207.794 97.4592L208.205 96.6483H187.423L187.834 97.4592ZM206.508 97.7592C206.441 98.0318 206.408 98.3116 206.408 98.5923V119.422H189.22V98.5923C189.22 98.3116 189.187 98.0318 189.12 97.7592H206.508ZM163.438 97.4592C163.62 97.8091 163.715 98.1978 163.715 98.5923V120.533H183.121V98.5923C183.121 98.1978 183.216 97.8091 183.398 97.4592L183.809 96.6483H163.027L163.438 97.4592ZM182.112 97.7592C182.045 98.0318 182.012 98.3116 182.012 98.5923V119.422H164.824V98.5923C164.824 98.3116 164.791 98.0318 164.724 97.7592H182.112ZM358.606 97.4592C358.788 97.8091 358.883 98.1978 358.883 98.5923V120.533H378.289V98.5923C378.29 98.1978 378.385 97.8091 378.566 97.4592L378.977 96.6483H358.196L358.606 97.4592ZM377.28 97.7592C377.214 98.0318 377.18 98.3116 377.18 98.5923V119.422H359.992V98.5923C359.993 98.3116 359.959 98.0318 359.892 97.7592H377.28ZM334.21 97.4592C334.392 97.8091 334.487 98.1978 334.487 98.5923V120.533H353.893V98.5923C353.893 98.1978 353.989 97.8091 354.17 97.4592L354.581 96.6483H333.8L334.21 97.4592ZM352.884 97.7592C352.818 98.0318 352.784 98.3116 352.784 98.5923V119.422H335.596V98.5923C335.596 98.3116 335.563 98.0318 335.496 97.7592H352.884ZM309.814 97.4592C309.996 97.8091 310.091 98.1978 310.091 98.5923V120.533H329.497V98.5923C329.497 98.1978 329.593 97.8091 329.774 97.4592L330.185 96.6483H309.404L309.814 97.4592ZM328.488 97.7592C328.421 98.0318 328.388 98.3116 328.388 98.5923V119.422H311.2V98.5923C311.2 98.3116 311.167 98.0318 311.1 97.7592H328.488ZM285.418 97.4592C285.6 97.8091 285.695 98.1978 285.695 98.5923V120.533H305.101V98.5923C305.101 98.1978 305.196 97.8091 305.378 97.4592L305.789 96.6483H285.008L285.418 97.4592ZM304.092 97.7592C304.025 98.0318 303.992 98.3116 303.992 98.5923V119.422H286.804V98.5923C286.804 98.3116 286.771 98.0318 286.704 97.7592H304.092ZM261.022 97.4592C261.204 97.8091 261.299 98.1978 261.299 98.5923V120.533H280.705V98.5923C280.705 98.1978 280.8 97.8091 280.982 97.4592L281.393 96.6483H260.611L261.022 97.4592ZM279.696 97.7592C279.629 98.0318 279.596 98.3116 279.596 98.5923V119.422H262.408V98.5923C262.408 98.3116 262.375 98.0318 262.308 97.7592H279.696ZM236.626 97.4592C236.808 97.8091 236.903 98.1978 236.903 98.5923V120.533H256.309V98.5923C256.309 98.1978 256.404 97.8091 256.586 97.4592L256.997 96.6483H236.215L236.626 97.4592ZM255.3 97.7592C255.233 98.0318 255.2 98.3116 255.2 98.5923V119.422H238.012V98.5923C238.012 98.3116 237.979 98.0318 237.912 97.7592H255.3ZM212.23 97.4592C212.412 97.8091 212.507 98.1978 212.507 98.5923V120.533H231.913V98.5923C231.913 98.1978 232.008 97.8091 232.19 97.4592L232.601 96.6483H211.819L212.23 97.4592ZM230.904 97.7592C230.837 98.0318 230.804 98.3116 230.804 98.5923V119.422H213.616V98.5923C213.616 98.3116 213.583 98.0318 213.516 97.7592H230.904ZM187.834 97.4592C188.016 97.8091 188.111 98.1978 188.111 98.5923V120.533H207.517V98.5923C207.517 98.1978 207.612 97.8091 207.794 97.4592L208.205 96.6483H187.423L187.834 97.4592ZM206.508 97.7592C206.441 98.0318 206.408 98.3116 206.408 98.5923V119.422H189.22V98.5923C189.22 98.3116 189.187 98.0318 189.12 97.7592H206.508ZM163.438 97.4592C163.62 97.8091 163.715 98.1978 163.715 98.5923V120.533H183.121V98.5923C183.121 98.1978 183.216 97.8091 183.398 97.4592L183.809 96.6483H163.027L163.438 97.4592ZM182.112 97.7592C182.045 98.0318 182.012 98.3116 182.012 98.5923V119.422H164.824V98.5923C164.824 98.3116 164.791 98.0318 164.724 97.7592H182.112ZM400.467 123.865H393.858C393.494 122.587 392.725 121.463 391.666 120.662C390.608 119.86 389.319 119.425 387.992 119.422H384.388V98.5923C384.39 98.1452 384.305 97.702 384.139 97.287C384.767 96.9164 385.256 96.349 385.53 95.6723C385.805 94.9956 385.849 94.2472 385.657 93.5427C385.464 92.8382 385.046 92.2167 384.466 91.7741C383.886 91.3315 383.177 91.0924 382.448 91.0938H159.557C158.827 91.0924 158.118 91.3315 157.538 91.7741C156.958 92.2167 156.54 92.8382 156.348 93.5427C156.155 94.2472 156.2 94.9956 156.474 95.6723C156.748 96.349 157.237 96.9164 157.866 97.287C157.699 97.702 157.615 98.1452 157.616 98.5923V119.422H154.012C152.685 119.425 151.396 119.86 150.338 120.662C149.28 121.463 148.51 122.587 148.146 123.865H140.982C139.659 123.867 138.391 124.395 137.456 125.332C136.521 126.269 135.994 127.539 135.992 128.864V422.142C135.995 423.467 136.522 424.737 137.457 425.673C138.392 426.61 139.66 427.138 140.982 427.141H400.467C401.79 427.139 403.058 426.612 403.994 425.674C404.929 424.737 405.456 423.467 405.458 422.142V128.864C405.456 127.539 404.929 126.269 403.994 125.332C403.058 124.395 401.79 123.867 400.467 123.865ZM404.349 422.142C404.348 422.935 404.105 423.71 403.652 424.361C403.199 425.013 402.558 425.51 401.815 425.785C401.385 425.95 400.928 426.032 400.467 426.03H140.982C140.522 426.032 140.065 425.95 139.635 425.785C138.892 425.51 138.251 425.013 137.798 424.361C137.345 423.71 137.102 422.935 137.101 422.142V128.864C137.102 127.833 137.512 126.845 138.239 126.116C138.967 125.387 139.953 124.977 140.982 124.976H149.033L149.122 124.532C149.355 123.404 149.968 122.391 150.859 121.663C151.749 120.935 152.863 120.536 154.012 120.533H158.725V98.5923C158.725 98.1403 158.848 97.6969 159.08 97.3092L159.423 96.7371L158.797 96.5038C158.307 96.326 157.896 95.9809 157.635 95.5291C157.375 95.0774 157.282 94.548 157.373 94.0343C157.463 93.5206 157.732 93.0554 158.132 92.7207C158.531 92.386 159.036 92.2033 159.557 92.2047H382.448C382.968 92.2033 383.473 92.386 383.873 92.7207C384.272 93.0554 384.541 93.5206 384.632 94.0343C384.722 94.548 384.629 95.0774 384.369 95.5291C384.108 95.9809 383.697 96.326 383.207 96.5038L382.581 96.7371L382.924 97.3092C383.157 97.6968 383.279 98.1403 383.279 98.5923V120.533H387.992C389.142 120.536 390.255 120.935 391.146 121.663C392.036 122.391 392.649 123.404 392.882 124.532L392.971 124.976H400.467C401.496 124.977 402.483 125.387 403.211 126.116C403.938 126.845 404.347 127.833 404.349 128.864L404.349 422.142ZM163.027 96.6483L163.438 97.4592C163.62 97.8091 163.715 98.1978 163.715 98.5923V120.533H183.121V98.5923C183.121 98.1978 183.216 97.8091 183.398 97.4592L183.809 96.6483H163.027ZM182.012 98.5923V119.422H164.824V98.5923C164.824 98.3116 164.791 98.0318 164.724 97.7592H182.112C182.045 98.0318 182.012 98.3116 182.012 98.5923ZM187.423 96.6483L187.834 97.4592C188.016 97.8091 188.111 98.1978 188.111 98.5923V120.533H207.517V98.5923C207.517 98.1978 207.612 97.8091 207.794 97.4592L208.205 96.6483H187.423ZM206.408 98.5923V119.422H189.22V98.5923C189.22 98.3116 189.187 98.0318 189.12 97.7592H206.508C206.441 98.0318 206.408 98.3116 206.408 98.5923ZM211.819 96.6483L212.23 97.4592C212.412 97.8091 212.507 98.1978 212.507 98.5923V120.533H231.913V98.5923C231.913 98.1978 232.008 97.8091 232.19 97.4592L232.601 96.6483H211.819ZM230.804 98.5923V119.422H213.616V98.5923C213.616 98.3116 213.583 98.0318 213.516 97.7592H230.904C230.837 98.0318 230.804 98.3116 230.804 98.5923ZM236.215 96.6483L236.626 97.4592C236.808 97.8091 236.903 98.1978 236.903 98.5923V120.533H256.309V98.5923C256.309 98.1978 256.404 97.8091 256.586 97.4592L256.997 96.6483H236.215ZM255.2 98.5923V119.422H238.012V98.5923C238.012 98.3116 237.979 98.0318 237.912 97.7592H255.3C255.233 98.0318 255.2 98.3116 255.2 98.5923ZM260.611 96.6483L261.022 97.4592C261.204 97.8091 261.299 98.1978 261.299 98.5923V120.533H280.705V98.5923C280.705 98.1978 280.8 97.8091 280.982 97.4592L281.393 96.6483H260.611ZM279.596 98.5923V119.422H262.408V98.5923C262.408 98.3116 262.375 98.0318 262.308 97.7592H279.696C279.629 98.0318 279.596 98.3116 279.596 98.5923ZM285.008 96.6483L285.418 97.4592C285.6 97.8091 285.695 98.1978 285.695 98.5923V120.533H305.101V98.5923C305.101 98.1978 305.196 97.8091 305.378 97.4592L305.789 96.6483H285.008ZM303.992 98.5923V119.422H286.804V98.5923C286.804 98.3116 286.771 98.0318 286.704 97.7592H304.092C304.025 98.0318 303.992 98.3116 303.992 98.5923ZM309.404 96.6483L309.814 97.4592C309.996 97.8091 310.091 98.1978 310.091 98.5923V120.533H329.497V98.5923C329.497 98.1978 329.593 97.8091 329.774 97.4592L330.185 96.6483H309.404ZM328.388 98.5923V119.422H311.2V98.5923C311.2 98.3116 311.167 98.0318 311.1 97.7592H328.488C328.421 98.0318 328.388 98.3116 328.388 98.5923ZM333.8 96.6483L334.21 97.4592C334.392 97.8091 334.487 98.1978 334.487 98.5923V120.533H353.893V98.5923C353.893 98.1978 353.989 97.8091 354.17 97.4592L354.581 96.6483H333.8ZM352.784 98.5923V119.422H335.596V98.5923C335.596 98.3116 335.563 98.0318 335.496 97.7592H352.884C352.818 98.0318 352.784 98.3116 352.784 98.5923ZM358.196 96.6483L358.606 97.4592C358.788 97.8091 358.883 98.1978 358.883 98.5923V120.533H378.289V98.5923C378.29 98.1978 378.385 97.8091 378.566 97.4592L378.977 96.6483H358.196ZM377.18 98.5923V119.422H359.992V98.5923C359.993 98.3116 359.959 98.0318 359.892 97.7592H377.28C377.214 98.0318 377.18 98.3116 377.18 98.5923ZM163.027 96.6483L163.438 97.4592C163.62 97.8091 163.715 98.1978 163.715 98.5923V120.533H183.121V98.5923C183.121 98.1978 183.216 97.8091 183.398 97.4592L183.809 96.6483H163.027ZM182.012 98.5923V119.422H164.824V98.5923C164.824 98.3116 164.791 98.0318 164.724 97.7592H182.112C182.045 98.0318 182.012 98.3116 182.012 98.5923ZM187.423 96.6483L187.834 97.4592C188.016 97.8091 188.111 98.1978 188.111 98.5923V120.533H207.517V98.5923C207.517 98.1978 207.612 97.8091 207.794 97.4592L208.205 96.6483H187.423ZM206.408 98.5923V119.422H189.22V98.5923C189.22 98.3116 189.187 98.0318 189.12 97.7592H206.508C206.441 98.0318 206.408 98.3116 206.408 98.5923ZM211.819 96.6483L212.23 97.4592C212.412 97.8091 212.507 98.1978 212.507 98.5923V120.533H231.913V98.5923C231.913 98.1978 232.008 97.8091 232.19 97.4592L232.601 96.6483H211.819ZM230.804 98.5923V119.422H213.616V98.5923C213.616 98.3116 213.583 98.0318 213.516 97.7592H230.904C230.837 98.0318 230.804 98.3116 230.804 98.5923ZM236.215 96.6483L236.626 97.4592C236.808 97.8091 236.903 98.1978 236.903 98.5923V120.533H256.309V98.5923C256.309 98.1978 256.404 97.8091 256.586 97.4592L256.997 96.6483H236.215ZM255.2 98.5923V119.422H238.012V98.5923C238.012 98.3116 237.979 98.0318 237.912 97.7592H255.3C255.233 98.0318 255.2 98.3116 255.2 98.5923ZM260.611 96.6483L261.022 97.4592C261.204 97.8091 261.299 98.1978 261.299 98.5923V120.533H280.705V98.5923C280.705 98.1978 280.8 97.8091 280.982 97.4592L281.393 96.6483H260.611ZM279.596 98.5923V119.422H262.408V98.5923C262.408 98.3116 262.375 98.0318 262.308 97.7592H279.696C279.629 98.0318 279.596 98.3116 279.596 98.5923ZM285.008 96.6483L285.418 97.4592C285.6 97.8091 285.695 98.1978 285.695 98.5923V120.533H305.101V98.5923C305.101 98.1978 305.196 97.8091 305.378 97.4592L305.789 96.6483H285.008ZM303.992 98.5923V119.422H286.804V98.5923C286.804 98.3116 286.771 98.0318 286.704 97.7592H304.092C304.025 98.0318 303.992 98.3116 303.992 98.5923ZM309.404 96.6483L309.814 97.4592C309.996 97.8091 310.091 98.1978 310.091 98.5923V120.533H329.497V98.5923C329.497 98.1978 329.593 97.8091 329.774 97.4592L330.185 96.6483H309.404ZM328.388 98.5923V119.422H311.2V98.5923C311.2 98.3116 311.167 98.0318 311.1 97.7592H328.488C328.421 98.0318 328.388 98.3116 328.388 98.5923ZM333.8 96.6483L334.21 97.4592C334.392 97.8091 334.487 98.1978 334.487 98.5923V120.533H353.893V98.5923C353.893 98.1978 353.989 97.8091 354.17 97.4592L354.581 96.6483H333.8ZM352.784 98.5923V119.422H335.596V98.5923C335.596 98.3116 335.563 98.0318 335.496 97.7592H352.884C352.818 98.0318 352.784 98.3116 352.784 98.5923ZM358.196 96.6483L358.606 97.4592C358.788 97.8091 358.883 98.1978 358.883 98.5923V120.533H378.289V98.5923C378.29 98.1978 378.385 97.8091 378.566 97.4592L378.977 96.6483H358.196ZM377.18 98.5923V119.422H359.992V98.5923C359.993 98.3116 359.959 98.0318 359.892 97.7592H377.28C377.214 98.0318 377.18 98.3116 377.18 98.5923ZM163.027 96.6483L163.438 97.4592C163.62 97.8091 163.715 98.1978 163.715 98.5923V120.533H183.121V98.5923C183.121 98.1978 183.216 97.8091 183.398 97.4592L183.809 96.6483H163.027ZM182.012 98.5923V119.422H164.824V98.5923C164.824 98.3116 164.791 98.0318 164.724 97.7592H182.112C182.045 98.0318 182.012 98.3116 182.012 98.5923ZM187.423 96.6483L187.834 97.4592C188.016 97.8091 188.111 98.1978 188.111 98.5923V120.533H207.517V98.5923C207.517 98.1978 207.612 97.8091 207.794 97.4592L208.205 96.6483H187.423ZM206.408 98.5923V119.422H189.22V98.5923C189.22 98.3116 189.187 98.0318 189.12 97.7592H206.508C206.441 98.0318 206.408 98.3116 206.408 98.5923ZM211.819 96.6483L212.23 97.4592C212.412 97.8091 212.507 98.1978 212.507 98.5923V120.533H231.913V98.5923C231.913 98.1978 232.008 97.8091 232.19 97.4592L232.601 96.6483H211.819ZM230.804 98.5923V119.422H213.616V98.5923C213.616 98.3116 213.583 98.0318 213.516 97.7592H230.904C230.837 98.0318 230.804 98.3116 230.804 98.5923ZM236.215 96.6483L236.626 97.4592C236.808 97.8091 236.903 98.1978 236.903 98.5923V120.533H256.309V98.5923C256.309 98.1978 256.404 97.8091 256.586 97.4592L256.997 96.6483H236.215ZM255.2 98.5923V119.422H238.012V98.5923C238.012 98.3116 237.979 98.0318 237.912 97.7592H255.3C255.233 98.0318 255.2 98.3116 255.2 98.5923ZM260.611 96.6483L261.022 97.4592C261.204 97.8091 261.299 98.1978 261.299 98.5923V120.533H280.705V98.5923C280.705 98.1978 280.8 97.8091 280.982 97.4592L281.393 96.6483H260.611ZM279.596 98.5923V119.422H262.408V98.5923C262.408 98.3116 262.375 98.0318 262.308 97.7592H279.696C279.629 98.0318 279.596 98.3116 279.596 98.5923ZM285.008 96.6483L285.418 97.4592C285.6 97.8091 285.695 98.1978 285.695 98.5923V120.533H305.101V98.5923C305.101 98.1978 305.196 97.8091 305.378 97.4592L305.789 96.6483H285.008ZM303.992 98.5923V119.422H286.804V98.5923C286.804 98.3116 286.771 98.0318 286.704 97.7592H304.092C304.025 98.0318 303.992 98.3116 303.992 98.5923ZM309.404 96.6483L309.814 97.4592C309.996 97.8091 310.091 98.1978 310.091 98.5923V120.533H329.497V98.5923C329.497 98.1978 329.593 97.8091 329.774 97.4592L330.185 96.6483H309.404ZM328.388 98.5923V119.422H311.2V98.5923C311.2 98.3116 311.167 98.0318 311.1 97.7592H328.488C328.421 98.0318 328.388 98.3116 328.388 98.5923ZM333.8 96.6483L334.21 97.4592C334.392 97.8091 334.487 98.1978 334.487 98.5923V120.533H353.893V98.5923C353.893 98.1978 353.989 97.8091 354.17 97.4592L354.581 96.6483H333.8ZM352.784 98.5923V119.422H335.596V98.5923C335.596 98.3116 335.563 98.0318 335.496 97.7592H352.884C352.818 98.0318 352.784 98.3116 352.784 98.5923ZM358.196 96.6483L358.606 97.4592C358.788 97.8091 358.883 98.1978 358.883 98.5923V120.533H378.289V98.5923C378.29 98.1978 378.385 97.8091 378.566 97.4592L378.977 96.6483H358.196ZM377.18 98.5923V119.422H359.992V98.5923C359.993 98.3116 359.959 98.0318 359.892 97.7592H377.28C377.214 98.0318 377.18 98.3116 377.18 98.5923ZM163.027 96.6483L163.438 97.4592C163.62 97.8091 163.715 98.1978 163.715 98.5923V120.533H183.121V98.5923C183.121 98.1978 183.216 97.8091 183.398 97.4592L183.809 96.6483H163.027ZM182.012 98.5923V119.422H164.824V98.5923C164.824 98.3116 164.791 98.0318 164.724 97.7592H182.112C182.045 98.0318 182.012 98.3116 182.012 98.5923ZM187.423 96.6483L187.834 97.4592C188.016 97.8091 188.111 98.1978 188.111 98.5923V120.533H207.517V98.5923C207.517 98.1978 207.612 97.8091 207.794 97.4592L208.205 96.6483H187.423ZM206.408 98.5923V119.422H189.22V98.5923C189.22 98.3116 189.187 98.0318 189.12 97.7592H206.508C206.441 98.0318 206.408 98.3116 206.408 98.5923ZM211.819 96.6483L212.23 97.4592C212.412 97.8091 212.507 98.1978 212.507 98.5923V120.533H231.913V98.5923C231.913 98.1978 232.008 97.8091 232.19 97.4592L232.601 96.6483H211.819ZM230.804 98.5923V119.422H213.616V98.5923C213.616 98.3116 213.583 98.0318 213.516 97.7592H230.904C230.837 98.0318 230.804 98.3116 230.804 98.5923ZM236.215 96.6483L236.626 97.4592C236.808 97.8091 236.903 98.1978 236.903 98.5923V120.533H256.309V98.5923C256.309 98.1978 256.404 97.8091 256.586 97.4592L256.997 96.6483H236.215ZM255.2 98.5923V119.422H238.012V98.5923C238.012 98.3116 237.979 98.0318 237.912 97.7592H255.3C255.233 98.0318 255.2 98.3116 255.2 98.5923ZM260.611 96.6483L261.022 97.4592C261.204 97.8091 261.299 98.1978 261.299 98.5923V120.533H280.705V98.5923C280.705 98.1978 280.8 97.8091 280.982 97.4592L281.393 96.6483H260.611ZM279.596 98.5923V119.422H262.408V98.5923C262.408 98.3116 262.375 98.0318 262.308 97.7592H279.696C279.629 98.0318 279.596 98.3116 279.596 98.5923ZM285.008 96.6483L285.418 97.4592C285.6 97.8091 285.695 98.1978 285.695 98.5923V120.533H305.101V98.5923C305.101 98.1978 305.196 97.8091 305.378 97.4592L305.789 96.6483H285.008ZM303.992 98.5923V119.422H286.804V98.5923C286.804 98.3116 286.771 98.0318 286.704 97.7592H304.092C304.025 98.0318 303.992 98.3116 303.992 98.5923ZM309.404 96.6483L309.814 97.4592C309.996 97.8091 310.091 98.1978 310.091 98.5923V120.533H329.497V98.5923C329.497 98.1978 329.593 97.8091 329.774 97.4592L330.185 96.6483H309.404ZM328.388 98.5923V119.422H311.2V98.5923C311.2 98.3116 311.167 98.0318 311.1 97.7592H328.488C328.421 98.0318 328.388 98.3116 328.388 98.5923ZM333.8 96.6483L334.21 97.4592C334.392 97.8091 334.487 98.1978 334.487 98.5923V120.533H353.893V98.5923C353.893 98.1978 353.989 97.8091 354.17 97.4592L354.581 96.6483H333.8ZM352.784 98.5923V119.422H335.596V98.5923C335.596 98.3116 335.563 98.0318 335.496 97.7592H352.884C352.818 98.0318 352.784 98.3116 352.784 98.5923ZM358.196 96.6483L358.606 97.4592C358.788 97.8091 358.883 98.1978 358.883 98.5923V120.533H378.289V98.5923C378.29 98.1978 378.385 97.8091 378.566 97.4592L378.977 96.6483H358.196ZM377.18 98.5923V119.422H359.992V98.5923C359.993 98.3116 359.959 98.0318 359.892 97.7592H377.28C377.214 98.0318 377.18 98.3116 377.18 98.5923Z" fill="#3F3D56"/>
<path d="M228.948 193.852H188.061C187.199 193.851 186.374 193.508 185.765 192.898C185.156 192.288 184.813 191.461 184.812 190.598V168.778C184.813 167.915 185.156 167.088 185.765 166.478C186.374 165.868 187.199 165.525 188.061 165.524H228.948C229.809 165.525 230.635 165.868 231.243 166.478C231.852 167.088 232.195 167.915 232.196 168.778V190.598C232.195 191.461 231.852 192.288 231.243 192.898C230.635 193.508 229.809 193.851 228.948 193.852Z" fill="#25C55E"/>
<path d="M291.169 193.852H250.281C249.42 193.851 248.594 193.508 247.986 192.898C247.377 192.288 247.034 191.461 247.033 190.598V168.778C247.034 167.915 247.377 167.088 247.986 166.478C248.594 165.868 249.42 165.525 250.281 165.524H291.169C292.03 165.525 292.855 165.868 293.464 166.478C294.073 167.088 294.416 167.915 294.417 168.778V190.598C294.416 191.461 294.073 192.288 293.464 192.898C292.855 193.508 292.03 193.851 291.169 193.852Z" fill="#25C55E"/>
<path d="M353.389 193.852H312.502C311.641 193.851 310.815 193.508 310.206 192.898C309.597 192.288 309.255 191.461 309.254 190.598V168.778C309.255 167.915 309.597 167.088 310.206 166.478C310.815 165.868 311.641 165.525 312.502 165.524H353.389C354.25 165.525 355.076 165.868 355.685 166.478C356.294 167.088 356.636 167.915 356.637 168.778V190.598C356.636 191.461 356.294 192.288 355.685 192.898C355.076 193.508 354.25 193.851 353.389 193.852Z" fill="#25C55E"/>
<path d="M228.948 266.616H188.061C187.199 266.615 186.374 266.272 185.765 265.662C185.156 265.052 184.813 264.225 184.812 263.362V241.542C184.813 240.679 185.156 239.852 185.765 239.242C186.374 238.632 187.199 238.289 188.061 238.288H228.948C229.809 238.289 230.635 238.632 231.243 239.242C231.852 239.852 232.195 240.679 232.196 241.542V263.362C232.195 264.225 231.852 265.052 231.243 265.662C230.635 266.272 229.809 266.615 228.948 266.616Z" fill="#25C55E"/>
<path d="M291.169 266.616H250.281C249.42 266.615 248.594 266.272 247.986 265.662C247.377 265.052 247.034 264.225 247.033 263.362V241.542C247.034 240.679 247.377 239.852 247.986 239.242C248.594 238.632 249.42 238.289 250.281 238.288H291.169C292.03 238.289 292.855 238.632 293.464 239.242C294.073 239.852 294.416 240.679 294.417 241.542V263.362C294.416 264.225 294.073 265.052 293.464 265.662C292.855 266.272 292.03 266.615 291.169 266.616Z" fill="#25C55E"/>
<path d="M353.389 266.616H312.502C311.641 266.615 310.815 266.272 310.206 265.662C309.597 265.052 309.255 264.225 309.254 263.362V241.542C309.255 240.679 309.597 239.852 310.206 239.242C310.815 238.632 311.641 238.289 312.502 238.288H353.389C354.25 238.289 355.076 238.632 355.685 239.242C356.294 239.852 356.636 240.679 356.637 241.542V263.362C356.636 264.225 356.294 265.052 355.685 265.662C355.076 266.272 354.25 266.615 353.389 266.616Z" fill="#25C55E"/>
<path d="M228.948 339.38H188.061C187.199 339.379 186.374 339.036 185.765 338.426C185.156 337.816 184.813 336.988 184.812 336.126V314.306C184.813 313.443 185.156 312.616 185.765 312.006C186.374 311.396 187.199 311.053 188.061 311.052H228.948C229.809 311.053 230.635 311.396 231.243 312.006C231.852 312.616 232.195 313.443 232.196 314.306V336.126C232.195 336.989 231.852 337.816 231.243 338.426C230.635 339.036 229.809 339.379 228.948 339.38Z" fill="#25C55E"/>
<path d="M291.169 339.38H250.281C249.42 339.379 248.594 339.036 247.986 338.426C247.377 337.816 247.034 336.988 247.033 336.126V314.306C247.034 313.443 247.377 312.616 247.986 312.006C248.594 311.396 249.42 311.053 250.281 311.052H291.169C292.03 311.053 292.855 311.396 293.464 312.006C294.073 312.616 294.416 313.443 294.417 314.306V336.126C294.416 336.988 294.073 337.816 293.464 338.426C292.855 339.036 292.03 339.379 291.169 339.38Z" fill="#25C55E"/>
<path d="M353.389 339.38H312.502C311.641 339.379 310.815 339.036 310.206 338.426C309.597 337.816 309.255 336.988 309.254 336.126V314.306C309.255 313.443 309.597 312.616 310.206 312.006C310.815 311.396 311.641 311.053 312.502 311.052H353.389C354.25 311.053 355.076 311.396 355.685 312.006C356.294 312.616 356.636 313.443 356.637 314.306V336.126C356.636 336.989 356.294 337.816 355.685 338.426C355.076 339.036 354.25 339.379 353.389 339.38Z" fill="#25C55E"/>
<path d="M222.329 196.652H174.963C173.818 196.65 172.721 196.194 171.912 195.383C171.102 194.573 170.647 193.473 170.646 192.327V167.049C170.647 165.903 171.102 164.803 171.912 163.993C172.721 163.182 173.818 162.726 174.963 162.724H222.329C223.473 162.726 224.57 163.182 225.38 163.992C226.189 164.803 226.644 165.903 226.646 167.049V192.327C226.644 193.473 226.189 194.573 225.38 195.383C224.57 196.194 223.473 196.65 222.329 196.652ZM174.963 163.835C174.112 163.836 173.297 164.175 172.695 164.778C172.094 165.38 171.756 166.197 171.755 167.049V192.327C171.756 193.179 172.094 193.996 172.695 194.598C173.297 195.201 174.112 195.54 174.963 195.541H222.329C223.179 195.54 223.995 195.201 224.596 194.598C225.198 193.996 225.536 193.179 225.537 192.327V167.049C225.536 166.197 225.198 165.38 224.596 164.778C223.995 164.175 223.179 163.836 222.329 163.835H174.963Z" fill="#3F3D56"/>
<path d="M294.408 196.652H247.042C245.897 196.65 244.8 196.194 243.991 195.383C243.181 194.573 242.726 193.473 242.725 192.327V167.049C242.726 165.903 243.181 164.803 243.991 163.992C244.8 163.182 245.897 162.726 247.042 162.724H294.408C295.552 162.726 296.65 163.182 297.459 163.992C298.268 164.803 298.724 165.903 298.725 167.049V192.327C298.724 193.473 298.268 194.573 297.459 195.383C296.65 196.194 295.552 196.65 294.408 196.652ZM247.042 163.835C246.191 163.836 245.376 164.175 244.774 164.778C244.173 165.38 243.835 166.197 243.834 167.049V192.327C243.835 193.179 244.173 193.996 244.774 194.598C245.376 195.201 246.191 195.54 247.042 195.541H294.408C295.258 195.54 296.074 195.201 296.675 194.598C297.277 193.996 297.615 193.179 297.616 192.327V167.049C297.615 166.197 297.277 165.38 296.675 164.778C296.074 164.175 295.258 163.836 294.408 163.835H247.042Z" fill="#3F3D56"/>
<path d="M366.487 196.652H319.121C317.977 196.65 316.879 196.194 316.07 195.383C315.261 194.573 314.805 193.473 314.804 192.327V167.049C314.805 165.903 315.261 164.803 316.07 163.992C316.879 163.182 317.977 162.726 319.121 162.724H366.487C367.631 162.726 368.729 163.182 369.538 163.992C370.348 164.803 370.803 165.903 370.804 167.049V192.327C370.803 193.473 370.348 194.573 369.538 195.383C368.729 196.194 367.631 196.65 366.487 196.652ZM319.121 163.835C318.271 163.836 317.455 164.175 316.854 164.778C316.252 165.38 315.914 166.197 315.913 167.049V192.327C315.914 193.179 316.252 193.996 316.854 194.598C317.455 195.201 318.271 195.54 319.121 195.541H366.487C367.337 195.54 368.153 195.201 368.754 194.598C369.356 193.996 369.694 193.179 369.695 192.327V167.049C369.694 166.197 369.356 165.38 368.754 164.778C368.153 164.175 367.337 163.836 366.487 163.835H319.121Z" fill="#3F3D56"/>
<path d="M222.329 269.416H174.963C173.818 269.414 172.721 268.958 171.912 268.147C171.102 267.337 170.647 266.237 170.646 265.091V239.813C170.647 238.667 171.102 237.567 171.912 236.756C172.721 235.946 173.818 235.489 174.963 235.488H222.329C223.473 235.489 224.57 235.946 225.38 236.756C226.189 237.567 226.644 238.667 226.646 239.813V265.091C226.644 266.237 226.189 267.337 225.38 268.147C224.57 268.958 223.473 269.414 222.329 269.416ZM174.963 236.599C174.112 236.6 173.297 236.939 172.695 237.542C172.094 238.144 171.756 238.961 171.755 239.813V265.091C171.756 265.943 172.094 266.76 172.695 267.362C173.297 267.965 174.112 268.304 174.963 268.305H222.329C223.179 268.304 223.995 267.965 224.596 267.362C225.198 266.76 225.536 265.943 225.537 265.091V239.813C225.536 238.961 225.198 238.144 224.596 237.542C223.995 236.939 223.179 236.6 222.329 236.599H174.963Z" fill="#3F3D56"/>
<path d="M294.408 269.416H247.042C245.897 269.414 244.8 268.958 243.991 268.147C243.181 267.337 242.726 266.237 242.725 265.091V239.813C242.726 238.667 243.181 237.567 243.991 236.756C244.8 235.946 245.897 235.489 247.042 235.488H294.408C295.552 235.489 296.65 235.946 297.459 236.756C298.268 237.567 298.724 238.667 298.725 239.813V265.091C298.724 266.237 298.268 267.337 297.459 268.147C296.65 268.958 295.552 269.414 294.408 269.416ZM247.042 236.599C246.191 236.6 245.376 236.939 244.774 237.542C244.173 238.144 243.835 238.961 243.834 239.813V265.091C243.835 265.943 244.173 266.76 244.774 267.362C245.376 267.965 246.191 268.304 247.042 268.305H294.408C295.258 268.304 296.074 267.965 296.675 267.362C297.277 266.76 297.615 265.943 297.616 265.091V239.813C297.615 238.961 297.277 238.144 296.675 237.542C296.074 236.939 295.258 236.6 294.408 236.599H247.042Z" fill="#3F3D56"/>
<path d="M366.487 269.416H319.121C317.977 269.414 316.879 268.958 316.07 268.147C315.261 267.337 314.805 266.237 314.804 265.091V239.813C314.805 238.667 315.261 237.567 316.07 236.756C316.879 235.946 317.977 235.489 319.121 235.488H366.487C367.631 235.489 368.729 235.946 369.538 236.756C370.348 237.567 370.803 238.667 370.804 239.813V265.091C370.803 266.237 370.348 267.337 369.538 268.147C368.729 268.958 367.631 269.414 366.487 269.416ZM319.121 236.599C318.271 236.6 317.455 236.939 316.854 237.542C316.252 238.144 315.914 238.961 315.913 239.813V265.091C315.914 265.943 316.252 266.76 316.854 267.362C317.455 267.965 318.271 268.304 319.121 268.305H366.487C367.337 268.304 368.153 267.965 368.754 267.362C369.356 266.76 369.694 265.943 369.695 265.091V239.813C369.694 238.961 369.356 238.144 368.754 237.542C368.153 236.939 367.337 236.6 366.487 236.599H319.121Z" fill="#3F3D56"/>
<path d="M222.329 342.179H174.963C173.818 342.178 172.721 341.722 171.912 340.911C171.102 340.1 170.647 339.001 170.646 337.854V312.577C170.647 311.43 171.102 310.331 171.912 309.52C172.721 308.709 173.818 308.253 174.963 308.252H222.329C223.473 308.253 224.57 308.709 225.38 309.52C226.189 310.331 226.644 311.43 226.646 312.577V337.854C226.644 339.001 226.189 340.1 225.38 340.911C224.57 341.722 223.473 342.178 222.329 342.179ZM174.963 309.363C174.112 309.364 173.297 309.703 172.695 310.305C172.094 310.908 171.756 311.725 171.755 312.577V337.854C171.756 338.706 172.094 339.523 172.695 340.126C173.297 340.729 174.112 341.068 174.963 341.068H222.329C223.179 341.068 223.995 340.729 224.596 340.126C225.198 339.523 225.536 338.706 225.537 337.854V312.577C225.536 311.725 225.198 310.908 224.596 310.305C223.995 309.703 223.179 309.364 222.329 309.363H174.963Z" fill="#3F3D56"/>
<path d="M294.408 342.179H247.042C245.897 342.178 244.8 341.722 243.991 340.911C243.181 340.1 242.726 339.001 242.725 337.854V312.577C242.726 311.43 243.181 310.331 243.991 309.52C244.8 308.709 245.897 308.253 247.042 308.252H294.408C295.552 308.253 296.65 308.709 297.459 309.52C298.268 310.331 298.724 311.43 298.725 312.577V337.854C298.724 339.001 298.268 340.1 297.459 340.911C296.65 341.722 295.552 342.178 294.408 342.179ZM247.042 309.363C246.191 309.364 245.376 309.703 244.774 310.305C244.173 310.908 243.835 311.725 243.834 312.577V337.854C243.835 338.706 244.173 339.523 244.774 340.126C245.376 340.729 246.191 341.068 247.042 341.068H294.408C295.258 341.068 296.074 340.729 296.675 340.126C297.277 339.523 297.615 338.706 297.616 337.854V312.577C297.615 311.725 297.277 310.908 296.675 310.305C296.074 309.703 295.258 309.364 294.408 309.363H247.042Z" fill="#3F3D56"/>
<path d="M366.487 342.179H319.121C317.977 342.178 316.879 341.722 316.07 340.911C315.261 340.1 314.805 339.001 314.804 337.854V312.577C314.805 311.43 315.261 310.331 316.07 309.52C316.879 308.709 317.977 308.253 319.121 308.252H366.487C367.631 308.253 368.729 308.709 369.538 309.52C370.348 310.331 370.803 311.43 370.804 312.577V337.854C370.803 339.001 370.348 340.1 369.538 340.911C368.729 341.722 367.631 342.178 366.487 342.179ZM319.121 309.363C318.271 309.364 317.455 309.703 316.854 310.305C316.252 310.908 315.914 311.725 315.913 312.577V337.854C315.914 338.706 316.252 339.523 316.854 340.126C317.455 340.729 318.271 341.068 319.121 341.068H366.487C367.337 341.068 368.153 340.729 368.754 340.126C369.356 339.523 369.694 338.706 369.695 337.854V312.577C369.694 311.725 369.356 310.908 368.754 310.305C368.153 309.703 367.337 309.364 366.487 309.363H319.121Z" fill="#3F3D56"/>
<path d="M559.446 427.974H0.554455C0.407405 427.974 0.266376 427.915 0.162396 427.811C0.0584153 427.707 0 427.566 0 427.418C0 427.271 0.0584153 427.13 0.162396 427.026C0.266376 426.922 0.407405 426.863 0.554455 426.863H559.446C559.593 426.863 559.734 426.922 559.838 427.026C559.942 427.13 560 427.271 560 427.418C560 427.566 559.942 427.707 559.838 427.811C559.734 427.915 559.593 427.974 559.446 427.974Z" fill="#3F3D56"/>
<path d="M298.725 374.212C298.74 372.945 298.252 371.723 297.368 370.816C296.485 369.908 295.277 369.39 294.012 369.374H270.725V426.863H298.725V374.212Z" fill="#3F3D56"/>
<path d="M271.279 426.307H242.17V374.373C242.172 372.974 242.727 371.633 243.715 370.643C244.702 369.654 246.041 369.098 247.438 369.096H271.279V426.307ZM243.279 425.197H270.17V370.207H247.438C246.335 370.208 245.278 370.648 244.499 371.429C243.719 372.21 243.281 373.268 243.279 374.373V425.197Z" fill="#3F3D56"/>
<path d="M245.774 401.59C246.693 401.59 247.438 400.844 247.438 399.924C247.438 399.003 246.693 398.257 245.774 398.257C244.856 398.257 244.111 399.003 244.111 399.924C244.111 400.844 244.856 401.59 245.774 401.59Z" fill="#3F3D56"/>
</g>
<defs>
<clipPath id="clip0_2_30">
<rect width="560" height="428.009" fill="white"/>
</clipPath>
</defs>
</svg>
